<?xml version="1.0" standalone="no"?><!DOCTYPE svg PUBLIC "-//W3C//DTD SVG 1.1//EN" "http://www.w3.org/Graphics/SVG/1.1/DTD/svg11.dtd"><svg t="1654257279070" class="icon" viewBox="0 0 1024 1024" version="1.1" xmlns="http://www.w3.org/2000/svg" p-id="3889" xmlns:xlink="http://www.w3.org/1999/xlink" width="48" height="48"><defs><style type="text/css">@font-face { font-family: feedback-iconfont; src: url("//at.alicdn.com/t/font_1031158_u69w8yhxdu.woff2?t=1630033759944") format("woff2"), url("//at.alicdn.com/t/font_1031158_u69w8yhxdu.woff?t=1630033759944") format("woff"), url("//at.alicdn.com/t/font_1031158_u69w8yhxdu.ttf?t=1630033759944") format("truetype"); }
</style></defs><path d="M447.897 928.22h-191.47V98.15h191.47z" fill="#133FA2" p-id="3890"></path><path d="M304.01 350.64h96.31v48h-96.31zM304.01 259.22h96.31v48h-96.31z" fill="#F6BC42" p-id="3891"></path><path d="M446.77 191.79h193.35v736.43H446.77z" fill="#EE777D" p-id="3892"></path><path d="M64.21 320.22h191.98v608H64.21z" fill="#F6BC42" p-id="3893"></path><path d="M495.95 704.46h96.31v48h-96.31zM446.77 623.63h193.35v48H446.77zM495.95 783.14h96.31v48h-96.31z" fill="#EB3752" p-id="3894"></path><path d="M129.506 831.716v-447.93h62.78v447.93z" fill="#F19237" p-id="3895"></path><path d="M640.807 332.344l187.775-39.913 126.404 594.685-187.776 39.913z" fill="#4992E7" p-id="3896"></path><path d="M811.033 819.127l-93.124-438.12 61.405-13.052 93.124 438.12z" fill="#1341A2" p-id="3897"></path></svg>