<?xml version="1.0" standalone="no"?><!DOCTYPE svg PUBLIC "-//W3C//DTD SVG 1.1//EN" "http://www.w3.org/Graphics/SVG/1.1/DTD/svg11.dtd"><svg t="1651057204578" class="icon" viewBox="0 0 1024 1024" version="1.1" xmlns="http://www.w3.org/2000/svg" p-id="2285" xmlns:xlink="http://www.w3.org/1999/xlink" width="32" height="32"><defs><style type="text/css">@font-face { font-family: feedback-iconfont; src: url("//at.alicdn.com/t/font_1031158_u69w8yhxdu.woff2?t=1630033759944") format("woff2"), url("//at.alicdn.com/t/font_1031158_u69w8yhxdu.woff?t=1630033759944") format("woff"), url("//at.alicdn.com/t/font_1031158_u69w8yhxdu.ttf?t=1630033759944") format("truetype"); }
</style></defs><path d="M512 65C265.146 65 65 265.146 65 512c0 246.854 200.146 447 447 447 246.854 0 447-200.146 447-447C959 265.146 758.854 65 512 65zM512 929.2C281.952 929.2 94.8 742.048 94.8 512S281.952 94.8 512 94.8 929.2 281.952 929.2 512 742.048 929.2 512 929.2z" p-id="2286" fill="#8a8a8a"></path><path d="M621.306 275.55 385.917 512 621.306 748.45 638.082 731.601 419.472 512 638.082 292.429Z" p-id="2287" fill="#8a8a8a"></path></svg>