<?xml version="1.0" standalone="no"?><!DOCTYPE svg PUBLIC "-//W3C//DTD SVG 1.1//EN" "http://www.w3.org/Graphics/SVG/1.1/DTD/svg11.dtd"><svg t="1654257372543" class="icon" viewBox="0 0 1024 1024" version="1.1" xmlns="http://www.w3.org/2000/svg" p-id="8169" xmlns:xlink="http://www.w3.org/1999/xlink" width="48" height="48"><defs><style type="text/css">@font-face { font-family: feedback-iconfont; src: url("//at.alicdn.com/t/font_1031158_u69w8yhxdu.woff2?t=1630033759944") format("woff2"), url("//at.alicdn.com/t/font_1031158_u69w8yhxdu.woff?t=1630033759944") format("woff"), url("//at.alicdn.com/t/font_1031158_u69w8yhxdu.ttf?t=1630033759944") format("truetype"); }
</style></defs><path d="M598 960H178c-45.21 0-82-37.18-82-82.87V146.88C96 101.18 132.79 64 178 64h166a32 32 0 0 1 0 64H178c-9.93 0-18 8.47-18 18.88v730.25c0 10.4 8.07 18.87 18 18.87h420a32 32 0 0 1 0 64zM896 638a32 32 0 0 1-32-32V146.88c0-10.41-8.07-18.88-18-18.88H680a32 32 0 0 1 0-64h166c45.21 0 82 37.18 82 82.88V606a32 32 0 0 1-32 32z" fill="#1296db" p-id="8170"></path><path d="M240 224m32 0l480 0q32 0 32 32l0 0q0 32-32 32l-480 0q-32 0-32-32l0 0q0-32 32-32Z" fill="#1296db" p-id="8171"></path><path d="M240 368m32 0l480 0q32 0 32 32l0 0q0 32-32 32l-480 0q-32 0-32-32l0 0q0-32 32-32Z" fill="#1296db" p-id="8172"></path><path d="M240 512m32 0l480 0q32 0 32 32l0 0q0 32-32 32l-480 0q-32 0-32-32l0 0q0-32 32-32Z" fill="#1296db" p-id="8173"></path><path d="M240 704m32 0l179 0q32 0 32 32l0 0q0 32-32 32l-179 0q-32 0-32-32l0 0q0-32 32-32Z" fill="#1296db" p-id="8174"></path><path d="M397 64.04m30 0l170 0q30 0 30 30l0 3.96q0 30-30 30l-170 0q-30 0-30-30l0-3.96q0-30 30-30Z" fill="#1296db" p-id="8175"></path><path d="M736 890c-71 0-125.57-25.49-151.8-40.68C562.49 836.74 512 803.06 512 762c0-30.53 26.42-63 72.5-89 44.5-25.15 98.34-39 151.5-39s107 13.85 151.5 39c46.08 26 72.5 58.46 72.5 89 0 42.78-50.65 76.19-72.42 88.57C842.85 876 789 890 736 890zM576.89 761.34c4.48 7 19.15 22 46.55 36.57A244.9 244.9 0 0 0 736 826c39.27 0 79.63-9.81 113.66-27.64 28-14.65 42.06-29.84 45.72-36.51-3.51-6.63-17.35-21.75-45.29-36.34C816.12 707.77 775.6 698 736 698s-80.12 9.77-114.09 27.51c-27.25 14.24-41.09 28.97-45.02 35.83z" fill="#1296db" p-id="8176"></path><path d="M736 824a62 62 0 1 1 62-62 62.07 62.07 0 0 1-62 62z m0-74a12 12 0 1 0 12 12 12 12 0 0 0-12-12z" fill="#1296db" p-id="8177"></path></svg>