<?xml version="1.0" standalone="no"?><!DOCTYPE svg PUBLIC "-//W3C//DTD SVG 1.1//EN" "http://www.w3.org/Graphics/SVG/1.1/DTD/svg11.dtd"><svg t="1654268593026" class="icon" viewBox="0 0 1024 1024" version="1.1" xmlns="http://www.w3.org/2000/svg" p-id="1739" xmlns:xlink="http://www.w3.org/1999/xlink" width="16" height="16"><defs><style type="text/css">@font-face { font-family: feedback-iconfont; src: url("//at.alicdn.com/t/font_1031158_u69w8yhxdu.woff2?t=1630033759944") format("woff2"), url("//at.alicdn.com/t/font_1031158_u69w8yhxdu.woff?t=1630033759944") format("woff"), url("//at.alicdn.com/t/font_1031158_u69w8yhxdu.ttf?t=1630033759944") format("truetype"); }
</style></defs><path d="M513.1 187c-324 0-448.7 320-448.7 320s127 327.3 448.7 327.3S961.8 507 961.8 507 837.1 187 513.1 187z m0 522.5c-110.5 0-200.1-89.6-200.1-200.1s89.6-200.1 200.1-200.1 200.1 89.6 200.1 200.1-89.6 200.1-200.1 200.1z" p-id="1740" fill="#1296db"></path><path d="M400.7 508.4c0 40.4 21.5 77.6 56.5 97.8 34.9 20.2 78 20.2 113 0 34.9-20.2 56.5-57.5 56.5-97.8 0-62.4-50.6-113-113-113s-113 50.6-113 113z" p-id="1741" fill="#1296db"></path></svg>