<?xml version="1.0" standalone="no"?><!DOCTYPE svg PUBLIC "-//W3C//DTD SVG 1.1//EN" "http://www.w3.org/Graphics/SVG/1.1/DTD/svg11.dtd"><svg t="1654257338347" class="icon" viewBox="0 0 1438 1024" version="1.1" xmlns="http://www.w3.org/2000/svg" p-id="5350" xmlns:xlink="http://www.w3.org/1999/xlink" width="67.40625" height="48"><defs><style type="text/css">@font-face { font-family: feedback-iconfont; src: url("//at.alicdn.com/t/font_1031158_u69w8yhxdu.woff2?t=1630033759944") format("woff2"), url("//at.alicdn.com/t/font_1031158_u69w8yhxdu.woff?t=1630033759944") format("woff"), url("//at.alicdn.com/t/font_1031158_u69w8yhxdu.ttf?t=1630033759944") format("truetype"); }
</style></defs><path d="M355.83840372 644.48885849h-8.32687471c-109.64444854 0-206.21003643 70.10269365-235.41949249 171.72544132-5.8854876 20.92617685-10.85545459 42.76787432-15.2150748 65.39430321h284.46522012l82.04805263-212.96744823a252.24762656 252.24762656 0 0 0-107.55183075-24.1522963zM1292.24123193 881.60860303c-4.35962021-22.58283252-9.50397187-44.42452998-15.47665136-65.39430323a235.89905097 235.89905097 0 0 0-127.73687257-147.57314501 252.24762656 252.24762656 0 0 0-107.55183164-24.10869991h-8.32687383a251.81166445 251.81166445 0 0 0-121.24103906 31.0840919L1029.05095888 881.60860303h263.19027305z" fill="#DEEDFC" p-id="5351"></path><path d="M699.37647734 671.56210039h-10.55028076c-138.50513438 0-260.53090488 90.41852373-297.3260997 221.55590039-5.58031377 19.87986797-10.37589609 40.54446826-14.82270909 61.60143339h634.76070557c-4.35962021-21.05696602-9.24239531-41.72156543-14.82270908-61.60143339-36.53361738-131.09378027-158.60298428-221.55590039-297.23890694-221.55590039z" fill="#CAE1FC" p-id="5352"></path><path d="M1031.01278838 509.035458a188.98953662 188.98953662 0 0 1-175.3003292-117.36097646l40.32648633-16.61015302A145.96008487 145.96008487 0 1 0 907.76632432 241.26758369l-36.79519482-23.41116035a189.55628789 189.55628789 0 1 1 160.04165888 291.17903467zM1282.69366367 883.48323974a867.56442539 867.56442539 0 0 0-24.41387285-125.77504394 231.53943076 231.53943076 0 0 0-222.994575-169.15326416h-8.71924043A232.32416221 232.32416221 0 0 0 877.24898281 643.09378027l-28.07595439-33.35109433a276.00755625 276.00755625 0 0 1 177.56733164-64.78395732h8.71924043A275.2228248 275.2228248 0 0 1 1300.13214453 746.15520254a911.16062754 911.16062754 0 0 1 25.63456729 132.14008916zM356.9719045 509.035458a189.55628789 189.55628789 0 1 1 160.04165888-291.17903466l-36.79519483 23.41116035a145.91648935 145.91648935 0 1 0 11.77097432 133.79674483l40.32648721 16.61015302a189.033133 189.033133 0 0 1-175.34392558 117.36097646zM105.2910292 883.61402803L62 878.42607998a911.16062754 911.16062754 0 0 1 25.67816279-132.27087744 275.2228248 275.2228248 0 0 1 265.02131426-201.19647392h8.71924043a275.96396074 275.96396074 0 0 1 177.56733164 64.78395732l-28.07595439 33.35109434a232.32416221 232.32416221 0 0 0-149.49137725-54.53884864h-8.71924043a231.53943076 231.53943076 0 0 0-222.994575 169.15326416 867.56442539 867.56442539 0 0 0-24.41387285 125.90583222z" fill="#5D7BD1" p-id="5353"></path><path d="M694.14493291 514.44138711a226.22069355 226.22069355 0 1 1 226.22069355-226.22069355A226.48227099 226.48227099 0 0 1 694.14493291 514.44138711zM694.14493291 105.59620215a182.62449141 182.62449141 0 1 0 182.62449141 182.62449141A182.84247246 182.84247246 0 0 0 694.14493291 105.59620215zM384.61189678 962l-43.20383642-5.79829482a1094.9186206 1094.9186206 0 0 1 29.0350705-143.86746797 330.63359854 330.63359854 0 0 1 318.25227744-241.65374854h10.55028076a330.63359854 330.63359854 0 0 1 318.25227656 241.65374854 1093.69792705 1093.69792705 0 0 1 28.77349307 142.08002402l-42.98585536 5.66750567a1050.66847529 1050.66847529 0 0 0-27.59639591-136.41251661 286.90660723 286.90660723 0 0 0-276.31273008-209.61054052h-10.55028076a286.90660723 286.90660723 0 0 0-276.31273007 209.65413691 1051.36601396 1051.36601396 0 0 0-27.90156974 138.28715332z" fill="#3A58C7" p-id="5354"></path></svg>