<?xml version="1.0" standalone="no"?><!DOCTYPE svg PUBLIC "-//W3C//DTD SVG 1.1//EN" "http://www.w3.org/Graphics/SVG/1.1/DTD/svg11.dtd"><svg t="1654268570153" class="icon" viewBox="0 0 1024 1024" version="1.1" xmlns="http://www.w3.org/2000/svg" p-id="1443" xmlns:xlink="http://www.w3.org/1999/xlink" width="16" height="16"><defs><style type="text/css">@font-face { font-family: feedback-iconfont; src: url("//at.alicdn.com/t/font_1031158_u69w8yhxdu.woff2?t=1630033759944") format("woff2"), url("//at.alicdn.com/t/font_1031158_u69w8yhxdu.woff?t=1630033759944") format("woff"), url("//at.alicdn.com/t/font_1031158_u69w8yhxdu.ttf?t=1630033759944") format("truetype"); }
</style></defs><path d="M737.28 329.728H286.72c-16.384 0-30.72 14.336-30.72 30.72s14.336 30.72 30.72 30.72h450.56c16.384 0 30.72-14.336 30.72-30.72s-14.336-30.72-30.72-30.72zM548.864 520.192H286.72c-16.384 0-30.72 14.336-30.72 30.72s14.336 30.72 30.72 30.72h262.144c16.384 0 30.72-14.336 30.72-30.72s-14.336-30.72-30.72-30.72z" p-id="1444" fill="#2c2c2c"></path><path d="M870.4 126.976h-716.8C79.872 126.976 20.48 186.368 20.48 260.096v595.968c0 32.768 34.816 51.2 61.44 34.816l169.984-102.4h616.448c73.728 0 133.12-59.392 133.12-133.12V260.096c2.048-73.728-57.344-133.12-131.072-133.12zM942.08 655.36c0 38.912-32.768 71.68-71.68 71.68h-634.88l-100.352 59.392L81.92 819.2V260.096c0-38.912 32.768-71.68 71.68-71.68h716.8c38.912 0 71.68 32.768 71.68 71.68V655.36z" p-id="1445" fill="#2c2c2c"></path></svg>